<?xml version="1.0" encoding="UTF-8"?>
<!-- Generator: Adobe Illustrator 21.1.0, SVG Export Plug-In . SVG Version: 6.00 Build 0)  -->
<svg xmlns="http://www.w3.org/2000/svg" xmlns:xlink="http://www.w3.org/1999/xlink" xmlns:dc="http://purl.org/dc/elements/1.1/" xmlns:cc="http://creativecommons.org/ns#" xmlns:rdf="http://www.w3.org/1999/02/22-rdf-syntax-ns#" version="1.1" id="designs" x="0px" y="0px" width="32px" height="32px" viewBox="0 0 32 32" style="enable-background:new 0 0 32 32;" xml:space="preserve">
<title property="dc:title">to enjoy</title><desc property="dc:description">An icon for "enjoy" from the Sketchy series on to [icon]. Downloaded from http://www.toicon.com/icons/sketchy_enjoy by 69.172.155.194 on 2018-04-09. Licensed CC-BY, see http://toicon.com/license/ for details.</desc>
<path class="sketchy_een" d="M28.649,23.531c0.008-0.161,0.012-0.322,0.022-0.482c0.049-0.86,0.128-1.714,0.142-2.575  c0.014-0.868,0.002-1.739-0.004-2.607c-0.004-0.883-0.024-1.767-0.095-2.646c-0.039-0.479-0.103-0.956-0.175-1.432  c-0.065-0.428-0.177-0.848-0.282-1.268c-0.107-0.422-0.209-0.844-0.341-1.258c-0.156-0.491-0.343-0.966-0.55-1.438  c-0.351-0.801-0.783-1.578-1.341-2.252c-0.248-0.302-0.503-0.613-0.791-0.877c-0.353-0.325-0.718-0.637-1.081-0.951  c-0.12-0.103-0.253-0.166-0.396-0.206c-0.017-0.085-0.038-0.17-0.081-0.243c-0.106-0.183-0.286-0.321-0.491-0.379  c-0.069-0.019-0.135-0.027-0.198-0.027c-0.116,0-0.225,0.028-0.338,0.071c0.002-0.001,0.004-0.002,0.005-0.002  c-0.003,0.001-0.005,0.002-0.008,0.003C22.616,4.974,22.585,4.987,22.552,5c-0.008,0.004-0.016,0.007-0.025,0.011  c-0.48,0.197-0.96,0.392-1.438,0.595c-0.039,0.017-0.076,0.044-0.111,0.072c-0.328-0.142-0.68-0.236-1.028-0.289  c-0.221-0.034-0.436-0.055-0.657-0.045c-0.1,0.005-0.197,0.013-0.295,0.017c-0.109-0.11-0.206-0.23-0.304-0.352  c-0.178-0.237-0.351-0.477-0.521-0.72c-0.254-0.365-0.519-0.74-0.846-1.041C17.152,3.085,16.928,3,16.706,3  c-0.214,0-0.428,0.08-0.595,0.247c-0.314,0.314-0.355,0.911,0,1.217c0.135,0.117,0.251,0.244,0.366,0.379  c0.331,0.444,0.63,0.909,0.966,1.348c-0.135,0.146-0.25,0.316-0.361,0.474c-0.136,0.191-0.235,0.418-0.315,0.637  c-0.063,0.17-0.113,0.345-0.151,0.523c-0.248,0.117-0.501,0.224-0.742,0.359c-0.365,0.207-0.726,0.418-1.09,0.623  c-0.72,0.404-1.457,0.775-2.199,1.138c-0.777,0.381-1.568,0.735-2.339,1.128c-0.749,0.383-1.475,0.806-2.22,1.199  c-1.471,0.771-2.954,1.53-4.453,2.246c-0.366,0.176-0.473,0.652-0.336,1.012c-0.005,0.035-0.021,0.066-0.022,0.103  c-0.043,1.789-0.018,3.581-0.018,5.371c0,1.706,0.018,3.413-0.012,5.117c-0.002,0.144-0.006,0.288-0.004,0.432  c0.002,0.171,0.068,0.323,0.158,0.457c0.023,0.394,0.359,0.748,0.765,0.733c0.85-0.03,1.702-0.057,2.552-0.065  c0.828-0.008,1.656,0.01,2.485,0.028c0.781,0.016,1.562,0.034,2.343,0.073c0.818,0.043,1.637,0.093,2.455,0.13  c1.625,0.071,3.244,0.187,4.865,0.3c0.818,0.057,1.637,0.091,2.453,0.15c0.814,0.061,1.627,0.156,2.439,0.229  c0.596,0.051,1.189,0.107,1.787,0.136c0.478,0.022,0.957,0.047,1.435,0.075C27.073,28.919,27.26,29,27.46,29  c0.235,0,0.461-0.095,0.629-0.26c0.179-0.179,0.233-0.383,0.26-0.627c0.041-0.396,0.057-0.793,0.101-1.189  c0.047-0.43,0.087-0.858,0.104-1.29c0.025-0.584,0.052-1.168,0.079-1.752c0.02-0.07,0.044-0.139,0.044-0.212  C28.678,23.621,28.658,23.578,28.649,23.531z M27.202,19.598c0,0.195-0.011,0.389-0.016,0.584c-0.674,0.034-1.348,0.028-2.024,0.02  c-0.791-0.012-1.583-0.014-2.376-0.02c-1.572-0.01-3.141-0.047-4.713-0.073c-0.767-0.014-1.534-0.016-2.303-0.028  c-0.789-0.014-1.578-0.041-2.366-0.053C11.78,20,10.157,20.002,8.534,19.927c-0.629-0.028-1.258-0.091-1.885-0.142  c-0.601-0.05-1.201-0.089-1.802-0.13c0.005-0.983,0.02-1.966,0.048-2.949c0.815-0.073,1.63-0.135,2.449-0.161  c0.83-0.026,1.66-0.032,2.49-0.024c1.794,0.018,3.589,0.01,5.383,0.049c0.848,0.02,1.692,0.083,2.54,0.11  c0.923,0.032,1.848,0.047,2.771,0.075c0.874,0.026,1.745,0.057,2.617,0.067c0.852,0.01,1.704,0.008,2.556,0.024  c0.347,0.006,0.694,0.01,1.041,0.03c0.146,0.008,0.294,0.017,0.442,0.025C27.208,17.801,27.203,18.702,27.202,19.598z M4.84,21.436  c0-0.089,0.001-0.178,0.001-0.267c0.782,0.046,1.566,0.087,2.348,0.128c0.785,0.039,1.566,0.079,2.351,0.091  c1.566,0.024,3.131,0.018,4.697,0.061c1.56,0.045,3.122,0.047,4.683,0.095c1.587,0.047,3.177,0.067,4.766,0.112  c0.637,0.02,1.274,0.045,1.911,0.065c0.503,0.015,1.006,0.037,1.509,0.04c-0.009,0.122-0.015,0.243-0.026,0.365  c-0.02,0.235-0.029,0.471-0.044,0.706c-0.504-0.015-1.008-0.027-1.513-0.055c-0.801-0.041-1.603-0.067-2.404-0.075  c-0.385-0.002-0.769,0-1.154,0c-0.426,0.002-0.854,0.002-1.28-0.002c-0.807-0.008-1.613-0.043-2.419-0.079  c-0.791-0.034-1.579-0.081-2.37-0.118c-0.836-0.037-1.672-0.069-2.508-0.11c-1.639-0.081-3.279-0.069-4.92-0.124  c-1.209-0.04-2.417-0.114-3.627-0.181C4.841,21.87,4.84,21.654,4.84,21.436z M18.282,8.236c0.028-0.138,0.066-0.271,0.113-0.405  c0.052-0.104,0.111-0.203,0.177-0.3c0.081-0.093,0.166-0.177,0.257-0.258c0.088-0.058,0.177-0.11,0.272-0.158  c0.018-0.007,0.036-0.013,0.053-0.02c0.057-0.021,0.111-0.044,0.162-0.07c0.149-0.007,0.296-0.005,0.447,0.008  c0.192,0.036,0.38,0.081,0.565,0.145c0.069,0.035,0.135,0.073,0.2,0.115c0.064,0.058,0.124,0.119,0.181,0.185  c0.055,0.079,0.105,0.16,0.151,0.245c0.006,0.02,0.012,0.04,0.017,0.06c0,0.039-0.002,0.078-0.004,0.117  c-0.024,0.098-0.051,0.193-0.083,0.287c-0.039,0.077-0.083,0.15-0.131,0.222c-0.066,0.077-0.135,0.149-0.21,0.218  c-0.134,0.089-0.272,0.165-0.418,0.233c-0.17,0.063-0.339,0.112-0.516,0.146c-0.147,0.014-0.293,0.02-0.441,0.013  c-0.13-0.024-0.257-0.056-0.382-0.097c-0.041-0.023-0.08-0.046-0.119-0.071c-0.083-0.072-0.161-0.148-0.234-0.229  c-0.008-0.014-0.017-0.027-0.025-0.041C18.3,8.541,18.29,8.5,18.282,8.459C18.278,8.385,18.278,8.311,18.282,8.236z M9.182,13.476  c0.763-0.388,1.51-0.808,2.285-1.179c0.773-0.371,1.554-0.728,2.325-1.108c0.635-0.316,1.268-0.637,1.889-0.978  c0.393-0.216,0.777-0.44,1.169-0.653c0.203,0.334,0.525,0.6,0.838,0.822c0.369,0.262,0.866,0.329,1.303,0.377  c0.17,0.018,0.341,0,0.511-0.02c0.266-0.03,0.524-0.073,0.779-0.15c0.252-0.075,0.499-0.197,0.734-0.315  c0.203-0.103,0.398-0.243,0.57-0.388c0.254-0.219,0.471-0.489,0.641-0.777c0.241-0.412,0.392-0.968,0.331-1.443  c-0.024-0.183-0.047-0.329-0.116-0.499c-0.039-0.094-0.081-0.181-0.126-0.265c0.148-0.064,0.295-0.132,0.443-0.198  c0.041,0.097,0.099,0.187,0.183,0.258c0.195,0.168,0.392,0.335,0.592,0.501c0.179,0.152,0.371,0.298,0.538,0.463  c0.301,0.297,0.586,0.604,0.853,0.932c0.459,0.65,0.815,1.366,1.13,2.096c0.227,0.577,0.417,1.162,0.573,1.763  c0.15,0.572,0.295,1.142,0.39,1.726c0.027,0.223,0.042,0.447,0.062,0.67c-0.386,0.005-0.773,0.012-1.158,0.007  c-0.306-0.006-0.609-0.01-0.913-0.01c-0.872,0.002-1.743,0.008-2.615,0.016c-0.905,0.008-1.81-0.004-2.715-0.018  c-0.852-0.01-1.704-0.014-2.558-0.047c-0.881-0.034-1.765-0.065-2.648-0.079c-0.623-0.008-1.246-0.006-1.867-0.006  c-0.278,0-0.554,0-0.83-0.002c-1.091-0.003-2.182-0.02-3.272-0.02c-0.651,0-1.302,0.006-1.954,0.026  c-0.103,0.003-0.206,0.016-0.309,0.02c0.219-0.116,0.441-0.226,0.66-0.343C7.656,14.255,8.419,13.864,9.182,13.476z M24.841,27.142  c-0.814-0.032-1.629-0.114-2.441-0.187c-0.781-0.069-1.56-0.116-2.343-0.15c-0.808-0.034-1.615-0.093-2.422-0.144  c-1.658-0.103-3.317-0.15-4.975-0.225c-0.81-0.037-1.621-0.089-2.431-0.124c-0.806-0.036-1.615-0.063-2.423-0.093  c-0.764-0.028-1.529-0.043-2.294-0.043c-0.218,0-0.436,0.006-0.654,0.008c-0.014-0.708-0.013-1.415-0.013-2.123  c0-0.14,0-0.279-0.001-0.419c0.688,0.023,1.374,0.042,2.062,0.056c0.822,0.018,1.645,0.057,2.467,0.075  c0.814,0.018,1.627,0.022,2.439,0.034c0.82,0.012,1.641,0.059,2.459,0.097c1.607,0.073,3.212,0.15,4.819,0.207  c0.85,0.032,1.698,0.055,2.546,0.067c0.761,0.012,1.52,0.022,2.28,0.063c0.653,0.036,1.305,0.083,1.958,0.122  c0.354,0.021,0.708,0.04,1.062,0.061c-0.005,0.082-0.011,0.164-0.015,0.246c-0.028,0.459-0.055,0.921-0.093,1.382  c-0.031,0.373-0.082,0.747-0.132,1.12C26.078,27.168,25.46,27.167,24.841,27.142z" style="fill: #111918;"/>
<metadata><work rdf:about=""><format>image/svg+xml</format><type rdf:resource="http://purl.org/dc/dcmitype/StillImage"/><license rdf:resource="http://creativecommons.org/licenses/by/4.0/"/><attributionname>Shannon E Thomas</attributionname><attributionurl>http://www.toicon.com/icons/sketchy_enjoy</attributionurl></work></metadata></svg>
